<svg width="101" height="100" viewBox="0 0 101 100" fill="none" xmlns="http://www.w3.org/2000/svg">
<path d="M2.5 72.2911H50.8878" stroke="#02080E" stroke-width="2" stroke-linecap="round" stroke-linejoin="round"/>
<path d="M10.5778 72.2319H5.05444C5.14258 70.814 5.23072 69.3074 5.28948 67.7417" stroke="#02080E" stroke-width="2" stroke-linecap="round" stroke-linejoin="round"/>
<path d="M10.3388 67.7418H4.73193C5.11387 60.8884 5.52518 53.0601 5.70145 51.0218C5.91055 48.2623 8.10715 46.1267 10.6498 45.5688" stroke="#02080E" stroke-width="2" stroke-linecap="round" stroke-linejoin="round"/>
<path d="M42.6974 72.2319H48.2207C48.1326 70.814 48.0444 69.3074 47.9857 67.7417" stroke="#02080E" stroke-width="2" stroke-linecap="round" stroke-linejoin="round"/>
<path d="M43.2482 45.7045V72.232H10.5784V45.7045C11.0484 45.5272 11.5185 45.35 12.0473 45.2023L19.9504 43.4594L22.1832 42.9572M31.614 42.9572L33.8468 43.4594L41.7499 45.2023C42.2493 45.3204 42.7488 45.4977 43.2189 45.7045" stroke="#02080E" stroke-width="2" stroke-linecap="round" stroke-linejoin="round"/>
<path d="M22.418 38.874V43.223C22.418 45.4976 24.2395 47.3292 26.5017 47.3292H27.5594C29.8216 47.3292 31.6431 45.4976 31.6431 43.223V38.874" stroke="#02080E" stroke-width="2" stroke-linecap="round" stroke-linejoin="round"/>
<path d="M35.6386 27.5368C35.3448 27.4482 35.051 27.5368 34.7866 27.655C34.7866 27.4186 34.816 27.1823 34.8453 27.0051C34.8453 26.8869 34.8453 26.7687 34.8453 26.621C34.8453 26.5324 34.8453 26.4438 34.8453 26.3847C34.8453 21.865 31.2904 18.2315 26.8835 18.2315C22.4766 18.2315 18.9217 21.865 18.9217 26.3552C18.9217 26.4438 18.9217 26.5324 18.9217 26.6506C18.9217 26.7687 18.9217 26.8869 18.9217 27.0051C18.9217 27.1528 18.9511 27.3891 18.9805 27.5663C18.7748 27.5073 18.5398 27.5073 18.3341 27.5663C17.4821 27.8322 17.1296 29.0729 17.5115 30.3136C17.8935 31.5543 18.8924 32.3519 19.715 32.1156C20.3319 34.8629 21.3602 37.9056 23.0936 39.7962C23.2699 40.003 23.5049 40.1802 23.7399 40.3575L24.1806 40.6824C24.9445 41.2437 25.8846 41.6277 26.8542 41.6277C30.9673 41.6277 33.0532 36.399 34.0227 31.9974C34.0815 31.9974 34.1109 32.0861 34.1696 32.0861C35.0216 32.3519 36.0205 31.5543 36.4025 30.2841C36.7844 29.0434 36.4025 27.8027 35.5798 27.5368" stroke="#02080E" stroke-width="2" stroke-linecap="round" stroke-linejoin="round"/>
<path d="M50.4795 72.2912H98.8673" stroke="#02080E" stroke-width="2" stroke-linecap="round" stroke-linejoin="round"/>
<path d="M58.5568 72.232H53.0334C53.1216 70.814 53.2097 69.3075 53.2685 67.7418" stroke="#02080E" stroke-width="2" stroke-linecap="round" stroke-linejoin="round"/>
<path d="M90.6759 72.232H96.1992C96.1111 70.814 96.0229 69.3075 95.9642 67.7418" stroke="#02080E" stroke-width="2" stroke-linecap="round" stroke-linejoin="round"/>
<path d="M91.2337 67.7419H96.5938C96.2118 60.8884 95.8005 53.0601 95.6242 51.0218C95.4151 48.2624 93.2185 46.1268 90.6758 45.5689" stroke="#02080E" stroke-width="2" stroke-linecap="round" stroke-linejoin="round"/>
<path d="M91.2267 45.7045V72.2321H58.5569V45.7045C59.027 45.5273 59.497 45.35 60.0259 45.2023L67.9289 43.4594L70.1617 42.9573M79.5925 42.9573L81.8254 43.4594L89.7284 45.2023C90.2278 45.3205 90.7273 45.4977 91.1974 45.7045" stroke="#02080E" stroke-width="2" stroke-linecap="round" stroke-linejoin="round"/>
<path d="M70.3967 38.874V43.2231C70.3967 45.4977 72.2183 47.3292 74.4805 47.3292H75.5381C77.8003 47.3292 79.6219 45.4977 79.6219 43.2231V38.874" stroke="#02080E" stroke-width="2" stroke-linecap="round" stroke-linejoin="round"/>
<path d="M83.6174 27.5369C83.3236 27.4482 83.0298 27.5369 82.7654 27.655C82.7654 27.4187 82.7947 27.1824 82.8241 27.0051C82.8241 26.887 82.8241 26.7688 82.8241 26.6211C82.8241 26.5325 82.8241 26.4439 82.8241 26.3848C82.8241 21.8651 79.2692 18.2316 74.8623 18.2316C70.4554 18.2316 66.9005 21.8651 66.9005 26.3552C66.9005 26.4439 66.9005 26.5325 66.9005 26.6506C66.9005 26.7688 66.9005 26.887 66.9005 27.0051C66.9005 27.1528 66.9299 27.3892 66.9592 27.5664C66.7536 27.5073 66.5186 27.5073 66.3129 27.5664C65.4609 27.8323 65.1083 29.073 65.4903 30.3137C65.8722 31.5544 66.8711 32.352 67.6937 32.1157C68.3107 34.863 69.339 37.9056 71.0724 39.7962C71.2486 40.003 71.4837 40.1803 71.7187 40.3575L72.1594 40.6825C72.9233 41.2437 73.8634 41.6278 74.8329 41.6278C78.946 41.6278 81.032 36.3991 82.0015 31.9975C82.0602 31.9975 82.0896 32.0861 82.1484 32.0861C83.0004 32.352 83.9993 31.5544 84.3812 30.2841C84.7632 29.0434 84.3812 27.8027 83.5586 27.5369" stroke="#02080E" stroke-width="2" stroke-linecap="round" stroke-linejoin="round"/>
<path d="M74.8563 23.8874C77.7355 23.8874 80.4678 24.1532 82.9357 24.5963C82.9357 24.4486 82.9357 24.3009 82.9357 24.1532C82.9357 19.663 79.2926 16 74.827 16C70.3613 16 66.7183 19.663 66.7183 24.1532C66.7183 24.3009 66.7183 24.4486 66.7183 24.5963C69.1861 24.1237 71.9184 23.8874 74.7976 23.8874" fill="#00A8E1"/>
<path d="M74.8563 23.8874C77.7355 23.8874 80.4678 24.1532 82.9357 24.5963C82.9357 24.4486 82.9357 24.3009 82.9357 24.1532C82.9357 19.663 79.2926 16 74.827 16C70.3613 16 66.7183 19.663 66.7183 24.1532C66.7183 24.3009 66.7183 24.4486 66.7183 24.5963C69.1861 24.1237 71.9184 23.8874 74.7976 23.8874" stroke="#02080E" stroke-width="2" stroke-linecap="round" stroke-linejoin="round"/>
<path d="M64.9851 25.0098C71.0079 23.5918 78.7053 23.5918 84.728 25.0098H64.9851Z" fill="#02080E"/>
<path d="M64.9851 25.0098C71.0079 23.5918 78.7053 23.5918 84.728 25.0098" stroke="#02080E" stroke-width="2" stroke-linecap="round" stroke-linejoin="round"/>
<path d="M22.5845 83.4439H78.7578" stroke="#02080E" stroke-width="2" stroke-linecap="round" stroke-linejoin="round"/>
<path d="M62.4934 82.9488C61.7689 75.6086 61.0443 62.6016 60.6386 60.4289C59.9431 56.7294 62.4354 53.2355 66.058 52.8538C69.4777 52.5014 72.5206 55.1146 72.8104 58.6672C72.9843 61.0161 73.506 75.1094 73.9117 82.9488H62.4934Z" fill="#00A8E1" stroke="#02080E" stroke-width="2" stroke-linecap="round" stroke-linejoin="round"/>
<path d="M39.4177 82.9488C40.2026 75.6086 40.9875 62.6016 41.427 60.4289C42.1805 56.7294 39.4805 53.2355 35.5561 52.8538C31.8514 52.5014 28.5548 55.1146 28.2409 58.6672C28.0525 61.0161 27.4874 75.1094 27.0479 82.9488H39.4177Z" fill="#00A8E1" stroke="#02080E" stroke-width="2" stroke-linecap="round" stroke-linejoin="round"/>
<path fill-rule="evenodd" clip-rule="evenodd" d="M45.4413 49.8461V53.7554L50.7296 62.4109L56.0179 53.3797L56.2256 49.8308L57.8689 50.2994L65.9776 52.3081C66.5064 52.4559 67.0059 52.6626 67.476 52.8694H67.5053V83.444H33.9541V52.8694C34.4242 52.6626 34.9236 52.4559 35.4524 52.3081L43.5905 50.2994L45.4413 49.8461Z" fill="#00A8E1"/>
<path d="M45.4413 49.8461H46.4413C46.4413 49.539 46.3002 49.2489 46.0586 49.0594C45.817 48.8698 45.5017 48.8017 45.2034 48.8748L45.4413 49.8461ZM45.4413 53.7554H44.4413C44.4413 53.9394 44.492 54.1198 44.5879 54.2768L45.4413 53.7554ZM50.7296 62.4109L49.8762 62.9322C50.0596 63.2324 50.3872 63.4141 50.7389 63.4108C51.0906 63.4075 51.4148 63.2197 51.5925 62.9162L50.7296 62.4109ZM56.0179 53.3797L56.8808 53.8851C56.9605 53.7489 57.0069 53.5957 57.0161 53.4382L56.0179 53.3797ZM56.2256 49.8308L56.4999 48.8692C56.2081 48.786 55.8943 48.8397 55.6468 49.0154C55.3994 49.191 55.2451 49.4695 55.2274 49.7724L56.2256 49.8308ZM57.8689 50.2994L57.5947 51.2611C57.6059 51.2642 57.6171 51.2672 57.6284 51.27L57.8689 50.2994ZM65.9776 52.3081L66.2466 51.345C66.2371 51.3424 66.2276 51.3399 66.2181 51.3375L65.9776 52.3081ZM67.476 52.8694L67.0733 53.7848C67.2002 53.8406 67.3373 53.8694 67.476 53.8694V52.8694ZM67.5053 52.8694H68.5053C68.5053 52.3171 68.0576 51.8694 67.5053 51.8694V52.8694ZM67.5053 83.444V84.444C68.0576 84.444 68.5053 83.9963 68.5053 83.444H67.5053ZM33.9541 83.444H32.9541C32.9541 83.9963 33.4018 84.444 33.9541 84.444V83.444ZM33.9541 52.8694L33.5514 51.9541C33.1884 52.1138 32.9541 52.4729 32.9541 52.8694H33.9541ZM35.4524 52.3081L35.2128 51.3373C35.203 51.3397 35.1932 51.3423 35.1834 51.345L35.4524 52.3081ZM43.5905 50.2994L43.3526 49.3281L43.3509 49.3285L43.5905 50.2994ZM45.4413 49.8461H44.4413V53.7554H45.4413H46.4413V49.8461H45.4413ZM45.4413 53.7554L44.5879 54.2768L49.8762 62.9322L50.7296 62.4109L51.5829 61.8895L46.2946 53.2341L45.4413 53.7554ZM50.7296 62.4109L51.5925 62.9162L56.8808 53.8851L56.0179 53.3797L55.1549 52.8744L49.8666 61.9056L50.7296 62.4109ZM56.0179 53.3797L57.0161 53.4382L57.2239 49.8893L56.2256 49.8308L55.2274 49.7724L55.0196 53.3213L56.0179 53.3797ZM56.2256 49.8308L55.9514 50.7925L57.5947 51.2611L57.8689 50.2994L58.1431 49.3377L56.4999 48.8692L56.2256 49.8308ZM57.8689 50.2994L57.6284 51.27L65.7372 53.2788L65.9776 52.3081L66.2181 51.3375L58.1094 49.3287L57.8689 50.2994ZM65.9776 52.3081L65.7086 53.2713C66.1664 53.3992 66.6129 53.5822 67.0733 53.7848L67.476 52.8694L67.8786 51.9541C67.3989 51.743 66.8465 51.5125 66.2466 51.345L65.9776 52.3081ZM67.476 52.8694V53.8694H67.5053V52.8694V51.8694H67.476V52.8694ZM67.5053 52.8694H66.5053V83.444H67.5053H68.5053V52.8694H67.5053ZM67.5053 83.444V82.444H33.9541V83.444V84.444H67.5053V83.444ZM33.9541 83.444H34.9541V52.8694H33.9541H32.9541V83.444H33.9541ZM33.9541 52.8694L34.3568 53.7848C34.8172 53.5822 35.2636 53.3992 35.7215 53.2713L35.4524 52.3081L35.1834 51.345C34.5836 51.5125 34.0311 51.743 33.5514 51.9541L33.9541 52.8694ZM35.4524 52.3081L35.6921 53.279L43.8302 51.2702L43.5905 50.2994L43.3509 49.3285L35.2128 51.3373L35.4524 52.3081ZM43.5905 50.2994L43.8284 51.2707L45.6792 50.8174L45.4413 49.8461L45.2034 48.8748L43.3526 49.3281L43.5905 50.2994Z" fill="#02080E"/>
<path d="M61.2332 31.6298C60.8807 31.5117 60.5281 31.6298 60.1756 31.7775C60.1756 31.4821 60.2343 31.2163 60.2343 30.9799C60.2343 30.8322 60.2343 30.6845 60.2343 30.5368C60.2343 30.4187 60.2343 30.33 60.2343 30.2414C60.2343 24.8355 55.9743 20.4635 50.7154 20.4635C45.4565 20.4635 41.1965 24.8355 41.1965 30.2119C41.1965 30.3005 41.1965 30.4187 41.1965 30.5368C41.1965 30.6845 41.1965 30.8027 41.1965 30.9504C41.1965 31.1276 41.2259 31.3935 41.2552 31.6298C40.9908 31.5708 40.7558 31.5708 40.4914 31.6298C39.4925 31.9548 39.0518 33.4318 39.4925 34.9384C39.9625 36.4154 41.1083 37.3607 42.1072 37.0949C42.8417 40.3739 44.0757 44.0369 46.1322 46.282C46.3672 46.5183 46.6317 46.7547 46.8961 46.9614L47.4249 47.3455C48.365 48.0249 49.4815 48.468 50.6273 48.468H50.6566C55.5924 48.468 58.0896 42.1759 59.2648 36.9472C59.3235 36.9767 59.3823 37.0653 59.4704 37.0949C60.4693 37.4198 61.6739 36.445 62.144 34.9384C62.614 33.4318 62.144 31.9548 61.1745 31.6298" stroke="#02080E" stroke-width="2" stroke-linecap="round" stroke-linejoin="round"/>
<path d="M40.6233 32.9886C43.5612 35.6473 53.4033 30.1232 54.4316 26.4897C54.4022 26.726 57.5458 33.3431 60.19 33.0773C61.1595 32.9886 60.8363 27.4941 59.2498 25.3671C49.5252 12.1625 36.6865 29.4142 40.5939 32.9886" fill="#02080E"/>
<path d="M60.5221 37.2005L67.7748 52.8218L58.2905 50.5902L56.6167 50.0323L56.0588 46.127L58.2905 39.4321L60.5221 37.2005Z" fill="#02080E" stroke="#02080E" stroke-linecap="round" stroke-linejoin="round"/>
<path d="M40.2785 37.2005L33.7427 52.8218L42.5101 50.5902L44.1838 50.0323L44.7417 46.127L42.5101 39.4321L40.2785 37.2005Z" fill="#02080E" stroke="#02080E" stroke-linecap="round" stroke-linejoin="round"/>
<path d="M56.0588 45.5691L56.0588 52.8218" stroke="#02080E" stroke-width="2" stroke-linecap="round" stroke-linejoin="round"/>
<path d="M45.4587 45.5691V52.8218" stroke="#02080E" stroke-width="2" stroke-linecap="round" stroke-linejoin="round"/>
</svg>
