<svg width="101" height="100" viewBox="0 0 101 100" fill="none" xmlns="http://www.w3.org/2000/svg">
<path d="M53.8065 96.6134C92.4465 79.7334 91.4066 32.4267 91.3532 30.4L91.1132 22.72H83.4332C62.5532 22.72 50.4999 2 50.4999 2C50.4999 2 38.4198 22.72 17.5665 22.72H9.88654L9.64655 30.4C9.59321 32.4 8.55318 79.7067 47.1932 96.6134L50.5265 98L53.8598 96.6134H53.8065Z" stroke="#02080E" stroke-width="2" stroke-linecap="round" stroke-linejoin="round"/>
<path fill-rule="evenodd" clip-rule="evenodd" d="M33.7269 37.3599H66.8736C68.0665 37.3599 69.0336 38.327 69.0336 39.5199V72.6666C69.0336 73.8595 68.0665 74.8266 66.8736 74.8266H33.7269C32.534 74.8266 31.5669 73.8595 31.5669 72.6666V39.5199C31.5669 38.327 32.534 37.3599 33.7269 37.3599ZM50.3142 44.2399C54.6875 44.2399 58.2341 47.7866 58.2341 52.1599C58.2341 55.3599 56.3408 58.0799 53.5941 59.3333V67.9466H47.0341V59.3333C44.3141 58.0799 42.3942 55.3599 42.3942 52.1599C42.3942 47.7866 45.9408 44.2399 50.3142 44.2399Z" fill="#00A8E1"/>
<path d="M53.5941 59.3333L53.179 58.4235C52.8227 58.5861 52.5941 58.9417 52.5941 59.3333H53.5941ZM53.5941 67.9466V68.9466C54.1464 68.9466 54.5941 68.4989 54.5941 67.9466H53.5941ZM47.0341 67.9466H46.0341C46.0341 68.4989 46.4818 68.9466 47.0341 68.9466V67.9466ZM47.0341 59.3333H48.0341C48.0341 58.943 47.8071 58.5884 47.4526 58.425L47.0341 59.3333ZM66.8736 37.3599V36.3599H33.7269V37.3599V38.3599H66.8736V37.3599ZM69.0336 39.5199H70.0336C70.0336 37.7747 68.6188 36.3599 66.8736 36.3599V37.3599V38.3599C67.5142 38.3599 68.0336 38.8793 68.0336 39.5199H69.0336ZM69.0336 72.6666H70.0336V39.5199H69.0336H68.0336V72.6666H69.0336ZM66.8736 74.8266V75.8266C68.6188 75.8266 70.0336 74.4118 70.0336 72.6666H69.0336H68.0336C68.0336 73.3072 67.5142 73.8266 66.8736 73.8266V74.8266ZM33.7269 74.8266V75.8266H66.8736V74.8266V73.8266H33.7269V74.8266ZM31.5669 72.6666H30.5669C30.5669 74.4118 31.9817 75.8266 33.7269 75.8266V74.8266V73.8266C33.0863 73.8266 32.5669 73.3072 32.5669 72.6666H31.5669ZM31.5669 39.5199H30.5669V72.6666H31.5669H32.5669V39.5199H31.5669ZM33.7269 37.3599V36.3599C31.9817 36.3599 30.5669 37.7747 30.5669 39.5199H31.5669H32.5669C32.5669 38.8793 33.0863 38.3599 33.7269 38.3599V37.3599ZM58.2341 52.1599H59.2341C59.2341 47.2343 55.2398 43.2399 50.3142 43.2399V44.2399V45.2399C54.1352 45.2399 57.2341 48.3389 57.2341 52.1599H58.2341ZM53.5941 59.3333L54.0093 60.243C57.0943 58.8353 59.2341 55.7708 59.2341 52.1599H58.2341H57.2341C57.2341 54.949 55.5873 57.3246 53.179 58.4235L53.5941 59.3333ZM53.5941 67.9466H54.5941V59.3333H53.5941H52.5941V67.9466H53.5941ZM47.0341 67.9466V68.9466H53.5941V67.9466V66.9466H47.0341V67.9466ZM47.0341 59.3333H46.0341V67.9466H47.0341H48.0341V59.3333H47.0341ZM42.3942 52.1599H41.3942C41.3942 55.7752 43.5645 58.8356 46.6156 60.2415L47.0341 59.3333L47.4526 58.425C45.0638 57.3243 43.3942 54.9446 43.3942 52.1599H42.3942ZM50.3142 44.2399V43.2399C45.3885 43.2399 41.3942 47.2343 41.3942 52.1599H42.3942H43.3942C43.3942 48.3389 46.4931 45.2399 50.3142 45.2399V44.2399Z" fill="#02080E"/>
<path d="M40.3667 37.3601V31.4134C40.3667 25.92 44.82 21.4934 50.2867 21.4934C55.78 21.4934 60.2067 25.9467 60.2067 31.4134V37.3601" stroke="#02080E" stroke-width="2" stroke-linecap="round" stroke-linejoin="round"/>
</svg>
