<svg width="101" height="100" viewBox="0 0 101 100" fill="none" xmlns="http://www.w3.org/2000/svg">
<path d="M91.643 11.3125H10.3306V98H91.643V11.3125Z" stroke="#02080E" stroke-width="2" stroke-linecap="round" stroke-linejoin="round"/>
<path d="M32.0455 19.3611H19.3652V35.3791H32.0455V19.3611Z" stroke="#02080E" stroke-width="2" stroke-linecap="round" stroke-linejoin="round"/>
<path d="M57.3268 19.3611H44.6465V35.3791H57.3268V19.3611Z" stroke="#02080E" stroke-width="2" stroke-linecap="round" stroke-linejoin="round"/>
<path d="M82.6085 19.3611H69.9282V35.3791H82.6085V19.3611Z" stroke="#02080E" stroke-width="2" stroke-linecap="round" stroke-linejoin="round"/>
<path d="M32.0455 46.3833H19.3652V62.4013H32.0455V46.3833Z" stroke="#02080E" stroke-width="2" stroke-linecap="round" stroke-linejoin="round"/>
<path d="M57.3268 46.3833H44.6465V62.4013H57.3268V46.3833Z" stroke="#02080E" stroke-width="2" stroke-linecap="round" stroke-linejoin="round"/>
<path d="M82.6085 46.3833H69.9282V62.4013H82.6085V46.3833Z" stroke="#02080E" stroke-width="2" stroke-linecap="round" stroke-linejoin="round"/>
<path d="M95.5 3H6.5V11.3125H95.5V3Z" fill="#00A8E1" stroke="#02080E" stroke-width="2" stroke-linecap="round" stroke-linejoin="round"/>
<path d="M32.0455 73.4319H19.3652V89.4499H32.0455V73.4319Z" stroke="#02080E" stroke-width="2" stroke-linecap="round" stroke-linejoin="round"/>
<path d="M60.6555 73.4319H41.2915V97.9999H60.6555V73.4319Z" fill="#00A8E1" stroke="#02080E" stroke-width="2" stroke-linecap="round" stroke-linejoin="round"/>
<path d="M82.6085 73.4319H69.9282V89.4499H82.6085V73.4319Z" stroke="#02080E" stroke-width="2" stroke-linecap="round" stroke-linejoin="round"/>
<path d="M50.9868 73.4319V97.9999" stroke="#02080E" stroke-width="2" stroke-linecap="round" stroke-linejoin="round"/>
</svg>
