<svg width="101" height="100" viewBox="0 0 101 100" fill="none" xmlns="http://www.w3.org/2000/svg">
<path d="M74.6191 60.6848V94H2.5V6H74.6191V38.8374" stroke="#02080E" stroke-width="2" stroke-linecap="round" stroke-linejoin="round"/>
<path d="M21.5 31.5589C21.5 40.6371 29.1132 48 38.5 48V31.5589L26.4936 20H26.439C23.3828 22.9821 21.5 27.0462 21.5 31.5589Z" fill="#00A8E1"/>
<path d="M18.5413 75.8956H57.5136" stroke="#02080E" stroke-width="2" stroke-linecap="round" stroke-linejoin="round"/>
<path d="M26.5486 75.8956V62.6226" stroke="#02080E" stroke-width="2" stroke-linecap="round" stroke-linejoin="round"/>
<path d="M50.5706 75.8956V62.6226" stroke="#02080E" stroke-width="2" stroke-linecap="round" stroke-linejoin="round"/>
<path d="M34.5559 75.8956V57.3134" stroke="#02080E" stroke-width="2" stroke-linecap="round" stroke-linejoin="round"/>
<path d="M42.5632 75.8956V67.9318" stroke="#02080E" stroke-width="2" stroke-linecap="round" stroke-linejoin="round"/>
<path d="M95.1597 19.1286L86.5037 14.8588L58.1478 71.7208L66.8038 75.9906L95.1597 19.1286Z" fill="#00A8E1" stroke="#02080E" stroke-width="2" stroke-linecap="round" stroke-linejoin="round"/>
<path d="M56.2021 86.4609L66.7985 76.0018L58.1506 71.7279L56.2021 86.4609Z" stroke="#02080E" stroke-width="2" stroke-linecap="round" stroke-linejoin="round"/>
<path d="M98.5 12.3839L89.844 8.11407L86.4759 14.8681L95.1319 19.1379L98.5 12.3839Z" stroke="#02080E" stroke-width="2" stroke-linecap="round" stroke-linejoin="round"/>
<path d="M55.1614 31.0487C55.1614 40.1805 47.7413 47.5869 38.5596 47.5869C29.3779 47.5869 21.9312 40.1805 21.9312 31.0487C21.9312 26.5094 23.7728 22.4213 26.7622 19.4216H26.8156C29.7783 16.3953 33.9688 14.5371 38.5596 14.5371C47.7413 14.5371 55.1614 21.9434 55.1614 31.0487Z" stroke="#0F141A" stroke-width="2" stroke-linecap="round" stroke-linejoin="round"/>
<path d="M38.5596 47.5869V31.0753H55.1881" stroke="#0F141A" stroke-width="2" stroke-linecap="round" stroke-linejoin="round"/>
<path d="M38.5596 47.5869V31.0753H55.1881C53.8745 44.6483 43.5551 47.7385 38.5596 47.5869Z" stroke="#0F141A" stroke-width="2" stroke-linecap="round" stroke-linejoin="round"/>
<path d="M38.5597 31.0752L26.8157 19.395" stroke="#0F141A" stroke-width="2" stroke-linecap="round" stroke-linejoin="round"/>
</svg>
