<svg width="101" height="100" viewBox="0 0 101 100" fill="none" xmlns="http://www.w3.org/2000/svg">
<path d="M74.0181 2H27.9819C25.5207 2 23.5 3.97053 23.5 6.37053V93.6042C23.5 96.0042 25.5207 98 27.9819 98H74.0181C76.4793 98 78.5 96.0042 78.5 93.6042V6.37053C78.5 3.97053 76.4793 2 74.0181 2ZM71.7643 88.5768C71.7643 90.1432 70.5207 91.3811 68.9663 91.3811H33.0596C31.5052 91.3811 30.2617 90.1179 30.2617 88.5768V11.3979C30.2617 9.83158 31.5052 8.59369 33.0596 8.59369H38.1632C38.3964 8.59369 38.6036 8.79579 38.6036 9.02316C38.6036 10.8674 40.0803 12.3579 41.9197 12.3579H60.1321C61.9715 12.3579 63.4482 10.8674 63.4482 9.02316C63.4482 8.77053 63.6295 8.59369 63.8886 8.59369H68.9922C70.5466 8.59369 71.7902 9.85684 71.7902 11.3979V88.5768H71.7643Z" stroke="#02080E" stroke-width="2" stroke-linecap="round" stroke-linejoin="round"/>
<path d="M45.8576 21.1243H38.5259C37.6102 21.1243 36.8679 21.8482 36.8679 22.7411V29.8906C36.8679 30.7835 37.6102 31.5074 38.5259 31.5074H45.8576C46.7733 31.5074 47.5156 30.7835 47.5156 29.8906V22.7411C47.5156 21.8482 46.7733 21.1243 45.8576 21.1243Z" fill="#00A8E1" stroke="#02080E" stroke-width="2" stroke-linecap="round" stroke-linejoin="round"/>
<path d="M63.474 21.1243H56.1424C55.2267 21.1243 54.4844 21.8482 54.4844 22.7411V29.8906C54.4844 30.7835 55.2267 31.5074 56.1424 31.5074H63.474C64.3897 31.5074 65.132 30.7835 65.132 29.8906V22.7411C65.132 21.8482 64.3897 21.1243 63.474 21.1243Z" stroke="#02080E" stroke-width="2" stroke-linecap="round" stroke-linejoin="round"/>
<path d="M45.8576 41.1832H38.5259C37.6102 41.1832 36.8679 41.907 36.8679 42.8V49.9495C36.8679 50.8424 37.6102 51.5663 38.5259 51.5663H45.8576C46.7733 51.5663 47.5156 50.8424 47.5156 49.9495V42.8C47.5156 41.907 46.7733 41.1832 45.8576 41.1832Z" stroke="#02080E" stroke-width="2" stroke-linecap="round" stroke-linejoin="round"/>
<path d="M63.474 41.1832H56.1424C55.2267 41.1832 54.4844 41.907 54.4844 42.8V49.9495C54.4844 50.8424 55.2267 51.5663 56.1424 51.5663H63.474C64.3897 51.5663 65.132 50.8424 65.132 49.9495V42.8C65.132 41.907 64.3897 41.1832 63.474 41.1832Z" fill="#00A8E1" stroke="#02080E" stroke-width="2" stroke-linecap="round" stroke-linejoin="round"/>
<path d="M45.8576 61.242H38.5259C37.6102 61.242 36.8679 61.9659 36.8679 62.8588V70.0083C36.8679 70.9013 37.6102 71.6252 38.5259 71.6252H45.8576C46.7733 71.6252 47.5156 70.9013 47.5156 70.0083V62.8588C47.5156 61.9659 46.7733 61.242 45.8576 61.242Z" fill="#00A8E1" stroke="#02080E" stroke-width="2" stroke-linecap="round" stroke-linejoin="round"/>
<path d="M63.474 61.242H56.1424C55.2267 61.242 54.4844 61.9659 54.4844 62.8588V70.0083C54.4844 70.9013 55.2267 71.6252 56.1424 71.6252H63.474C64.3897 71.6252 65.132 70.9013 65.132 70.0083V62.8588C65.132 61.9659 64.3897 61.242 63.474 61.242Z" stroke="#02080E" stroke-width="2" stroke-linecap="round" stroke-linejoin="round"/>
</svg>
