<svg width="101" height="100" viewBox="0 0 101 100" fill="none" xmlns="http://www.w3.org/2000/svg">
<path d="M67.2314 18.7495V6.37053C67.2314 3.97053 65.2205 2 62.7714 2H16.96C14.5109 2 12.5 3.97053 12.5 6.37053V93.6042C12.5 96.0042 14.5109 98 16.96 98H62.7714C65.2205 98 67.2314 96.0042 67.2314 93.6042V77.4863C65.0658 78.2442 62.7714 78.7495 60.4254 79.0021V91.0021H19.3318V9.02316H60.4254V17.2589C62.7714 17.5116 65.0658 18.0168 67.2314 18.7747V18.7495Z" stroke="#02080E" stroke-width="2" stroke-linecap="round" stroke-linejoin="round"/>
<path d="M88.4997 48.1306C88.4997 61.6969 79.6056 73.2422 67.2311 77.4864C65.0655 78.2443 62.7711 78.7496 60.4251 79.0022C59.2392 79.1538 58.0018 79.2043 56.7643 79.2043C39.2338 79.2043 25.0547 65.2843 25.0547 48.1306C25.0547 30.9769 39.2596 17.0317 56.7643 17.0317C58.0018 17.0317 59.2134 17.1075 60.4251 17.2338C62.7711 17.4864 65.0655 17.9917 67.2311 18.7496C79.6056 22.9938 88.4997 34.5643 88.4997 48.1306Z" stroke="#02080E" stroke-width="2" stroke-linecap="round" stroke-linejoin="round"/>
<path d="M60.4772 59.3222C60.4772 61.318 58.8015 62.9601 56.7648 62.9601C54.7282 62.9601 53.0525 61.3432 53.0525 59.3222C53.0525 59.1959 53.0525 59.0948 53.0525 58.9685H60.4256C60.4256 58.9685 60.4256 59.1706 60.4256 59.3222H60.4772Z" fill="#00A8E1" stroke="#02080E" stroke-width="2" stroke-linecap="round" stroke-linejoin="round"/>
<path d="M70.8664 58.9685H42.6628C42.6628 57.2758 43.7714 55.8863 45.3182 55.3811V44.5179C45.3182 38.3032 50.4484 33.3011 56.7646 33.3011C63.0807 33.3011 68.211 38.3032 68.211 44.5179V55.3811C69.7578 55.8611 70.8664 57.2758 70.8664 58.9685Z" fill="#00A8E1" stroke="#02080E" stroke-width="2" stroke-linecap="round" stroke-linejoin="round"/>
<path d="M34.9287 43.1286C34.2584 44.6949 33.8975 46.3875 33.8975 48.1307C33.8975 49.8739 34.2584 51.5412 34.9287 53.1328" stroke="#02080E" stroke-width="2" stroke-linecap="round" stroke-linejoin="round"/>
<path d="M40.0072 44.6442C39.5174 45.7558 39.2854 46.9432 39.2854 48.1305C39.2854 49.3179 39.5174 50.48 40.0072 51.6169" stroke="#02080E" stroke-width="2" stroke-linecap="round" stroke-linejoin="round"/>
<path d="M78.626 43.1286C79.2963 44.6949 79.6572 46.3875 79.6572 48.1307C79.6572 49.8739 79.2963 51.5412 78.626 53.1328" stroke="#02080E" stroke-width="2" stroke-linecap="round" stroke-linejoin="round"/>
<path d="M73.5217 44.6442C74.0116 45.7558 74.2436 46.9432 74.2436 48.1305C74.2436 49.3179 74.0116 50.48 73.5217 51.6169" stroke="#02080E" stroke-width="2" stroke-linecap="round" stroke-linejoin="round"/>
</svg>
